<mxfile host="app.diagrams.net" agent="Mozilla/5.0 (Windows NT 10.0; Win64; x64) AppleWebKit/537.36 (KHTML, like Gecko) Chrome/124.0.0.0 Safari/537.36" version="25.0.1">
  <diagram name="PÃ¡gina-1" id="93nRO7YrNGqqQC-pWq4j">
    <mxGraphModel dx="594" dy="1578" grid="1" gridSize="10" guides="1" tooltips="1" connect="1" arrows="1" fold="1" page="1" pageScale="1" pageWidth="827" pageHeight="1169" background="none" math="0" shadow="0">
      <root>
        <mxCell id="0" />
        <mxCell id="1" parent="0" />
        <mxCell id="yBRTCXa7PrUYHRPsmxQ5-3" value="INICIO" style="strokeWidth=2;html=1;shape=mxgraph.flowchart.start_1;whiteSpace=wrap;labelBackgroundColor=none;fillColor=#FAE5C7;strokeColor=#0F8B8D;fontColor=#143642;rounded=1;" vertex="1" parent="1">
          <mxGeometry x="314" y="60" width="100" height="60" as="geometry" />
        </mxCell>
        <mxCell id="yBRTCXa7PrUYHRPsmxQ5-4" value="FIM" style="strokeWidth=2;html=1;shape=mxgraph.flowchart.start_1;whiteSpace=wrap;labelBackgroundColor=none;fillColor=#FAE5C7;strokeColor=#0F8B8D;fontColor=#143642;rounded=1;" vertex="1" parent="1">
          <mxGeometry x="314" y="585" width="100" height="60" as="geometry" />
        </mxCell>
        <mxCell id="yBRTCXa7PrUYHRPsmxQ5-5" value="NOME" style="html=1;strokeWidth=2;shape=manualInput;whiteSpace=wrap;rounded=1;size=26;arcSize=11;labelBackgroundColor=none;fillColor=#FAE5C7;strokeColor=#0F8B8D;fontColor=#143642;" vertex="1" parent="1">
          <mxGeometry x="314" y="180" width="100" height="60" as="geometry" />
        </mxCell>
        <mxCell id="yBRTCXa7PrUYHRPsmxQ5-6" value="SOBRENOME" style="html=1;strokeWidth=2;shape=manualInput;whiteSpace=wrap;rounded=1;size=26;arcSize=11;labelBackgroundColor=none;fillColor=#FAE5C7;strokeColor=#0F8B8D;fontColor=#143642;" vertex="1" parent="1">
          <mxGeometry x="314" y="300" width="100" height="60" as="geometry" />
        </mxCell>
        <mxCell id="yBRTCXa7PrUYHRPsmxQ5-7" value="NOME&lt;div&gt;SOBRENOME&lt;/div&gt;" style="strokeWidth=2;html=1;shape=mxgraph.flowchart.display;whiteSpace=wrap;labelBackgroundColor=none;fillColor=#FAE5C7;strokeColor=#0F8B8D;fontColor=#143642;rounded=1;" vertex="1" parent="1">
          <mxGeometry x="314" y="440" width="100" height="60" as="geometry" />
        </mxCell>
        <mxCell id="yBRTCXa7PrUYHRPsmxQ5-12" style="edgeStyle=orthogonalEdgeStyle;rounded=1;orthogonalLoop=1;jettySize=auto;html=1;exitX=0.5;exitY=1;exitDx=0;exitDy=0;entryX=0.5;entryY=0.15;entryDx=0;entryDy=0;entryPerimeter=0;labelBackgroundColor=none;strokeColor=#A8201A;fontColor=default;" edge="1" parent="1" source="yBRTCXa7PrUYHRPsmxQ5-5" target="yBRTCXa7PrUYHRPsmxQ5-6">
          <mxGeometry relative="1" as="geometry" />
        </mxCell>
        <mxCell id="yBRTCXa7PrUYHRPsmxQ5-15" style="edgeStyle=orthogonalEdgeStyle;rounded=1;orthogonalLoop=1;jettySize=auto;html=1;exitX=0.5;exitY=1;exitDx=0;exitDy=0;entryX=0.5;entryY=0;entryDx=0;entryDy=0;entryPerimeter=0;labelBackgroundColor=none;strokeColor=#A8201A;fontColor=default;" edge="1" parent="1" source="yBRTCXa7PrUYHRPsmxQ5-6" target="yBRTCXa7PrUYHRPsmxQ5-7">
          <mxGeometry relative="1" as="geometry" />
        </mxCell>
        <mxCell id="yBRTCXa7PrUYHRPsmxQ5-16" style="edgeStyle=orthogonalEdgeStyle;rounded=1;orthogonalLoop=1;jettySize=auto;html=1;exitX=0.5;exitY=1;exitDx=0;exitDy=0;exitPerimeter=0;entryX=0.5;entryY=0;entryDx=0;entryDy=0;entryPerimeter=0;labelBackgroundColor=none;strokeColor=#A8201A;fontColor=default;" edge="1" parent="1" source="yBRTCXa7PrUYHRPsmxQ5-7" target="yBRTCXa7PrUYHRPsmxQ5-4">
          <mxGeometry relative="1" as="geometry" />
        </mxCell>
        <mxCell id="yBRTCXa7PrUYHRPsmxQ5-17" style="edgeStyle=orthogonalEdgeStyle;rounded=1;orthogonalLoop=1;jettySize=auto;html=1;exitX=0.5;exitY=1;exitDx=0;exitDy=0;exitPerimeter=0;entryX=0.5;entryY=0.167;entryDx=0;entryDy=0;entryPerimeter=0;labelBackgroundColor=none;strokeColor=#A8201A;fontColor=default;" edge="1" parent="1" source="yBRTCXa7PrUYHRPsmxQ5-3" target="yBRTCXa7PrUYHRPsmxQ5-5">
          <mxGeometry relative="1" as="geometry" />
        </mxCell>
      </root>
    </mxGraphModel>
  </diagram>
</mxfile>
